<svg id="Capa_1" enable-background="new 0 0 497.095 497.095" height="512" viewBox="0 0 497.095 497.095" width="512" xmlns="http://www.w3.org/2000/svg"><g><path d="m482.604 170.282-15.911-36.699c-2.196-5.064-8.08-7.392-13.146-5.2l-46.393 20.076c-18.998-29.413-45.883-52.242-76.831-66.484l13.276-48.864c1.448-5.33-1.699-10.824-7.028-12.272l-38.601-10.487c-5.33-1.448-10.824 1.698-12.272 7.028l-13.262 48.813c-23.325-2.343-47.491-.195-71.313 7.088-10.214 3.123-19.949 7.07-29.164 11.734l-30.014-40.71c-3.275-4.443-9.531-5.392-13.977-2.12l-32.215 23.71c-4.451 3.276-5.401 9.541-2.121 13.988l30.033 40.736c-23.991 24.792-40.528 56.011-47.549 89.796l-50.57-1.942c-5.516-.212-10.16 4.085-10.376 9.601l-1.567 39.97c-.216 5.521 4.087 10.172 9.608 10.384l50.611 1.944c1.296 10.04 3.438 20.106 6.497 30.111 7.283 23.821 19.016 45.056 34.001 63.083l-33.06 38.301c-3.607 4.179-3.146 10.491 1.032 14.101l30.266 26.153c4.18 3.612 10.498 3.15 14.108-1.032l33.109-38.356c29.114 17.694 63.074 27.216 98.081 26.519l9.311 49.753c1.017 5.432 6.246 9.009 11.677 7.988l39.312-7.39c5.425-1.02 8.997-6.242 7.982-11.667l-9.314-49.769c33.54-12.235 61.475-33.487 81.881-60.136l44.72 23.777c4.879 2.595 10.938.74 13.528-4.142l18.75-35.333c2.587-4.876.735-10.926-4.139-13.517l-44.691-23.763c10.683-31.819 12.68-66.862 4.068-101.509l46.462-20.106c5.069-2.195 7.399-8.086 5.201-13.156zm-225.634 126.449c-27.614 0-50-22.386-50-50s22.386-50 50-50 50 22.386 50 50-22.386 50-50 50z" fill="#e2e9ee"/><path d="m256.97 116.731c-71.797 0-130 58.203-130 130s58.203 130 130 130 130-58.203 130-130-58.203-130-130-130zm0 180c-27.614 0-50-22.386-50-50s22.386-50 50-50 50 22.386 50 50-22.386 50-50 50z" fill="#c5d3de"/><path d="m256.97 186.731c-33.084 0-60 26.916-60 60s26.916 60 60 60 60-26.916 60-60-26.916-60-60-60zm0 100c-22.056 0-40-17.944-40-40s17.944-40 40-40 40 17.944 40 40-17.944 40-40 40zm67.873-162.446c-53.319-29.555-117.562-20.61-160.733 17.639-9.964 8.841 3.312 23.804 13.276 14.963 37.004-32.777 92.063-40.44 137.761-15.109 57.965 32.13 78.907 105.167 46.777 163.131-32.13 57.965-105.167 78.908-163.132 46.777-45.236-25.074-67.922-75.061-60.435-123.355 2.042-13.153-17.726-16.222-19.768-3.069-8.736 56.345 17.731 114.664 70.507 143.917 67.625 37.485 152.835 13.052 190.32-54.573s13.053-152.836-54.573-190.321zm-181.998 50.126c-5.523 0-10 4.477-10 10s4.477 10 10 10 10-4.477 10-10-4.477-10-10-10zm114.492 306.432-7.788-41.615c-30.633-.752-60.613-8.862-87.613-23.697l-27.7 32.091c-7.459 8.11-19.072 9.4-28.217 2.065l-30.266-26.153c-8.341-7.206-9.267-19.857-2.064-28.201l27.649-32.032c-19.981-25.891-31.465-56.214-36.16-83.253l-42.351-1.626c-9.212-.366-19.664-7.721-19.217-20.77l1.566-39.969c.433-11.011 9.729-19.618 20.753-19.202l42.305 1.625c7.563-29.768 22.098-57.214 42.474-80.209l-25.125-34.079c-6.936-10.344-4.097-21.57 4.241-27.976l32.216-23.71c8.877-6.534 21.416-4.629 27.953 4.239l25.109 34.056c25.222-11.663 56.061-18.373 89.854-16.848l11.091-40.821c2.893-10.643 13.906-16.947 24.545-14.056l38.601 10.487c11.358 3.317 16.777 14.253 14.057 24.544l-11.106 40.877c27.397 14.088 50.886 34.409 68.639 59.383l38.793-16.788c10.114-4.378 21.908.289 26.293 10.399l15.911 36.7s0 .001.001.001c4.157 9.942.802 21.039-10.407 26.309l-38.859 16.816c6.09 30.125 4.847 61.154-3.634 90.681l37.376 19.874c9.73 5.173 13.443 17.301 8.277 27.035l-18.75 35.333c-4.943 9.766-17.072 13.379-27.056 8.283l-37.405-19.888c-19.737 23.542-44.767 41.924-73.146 53.721l7.789 41.626c2.027 10.83-5.133 21.298-15.963 23.334l-39.312 7.39c-10.302 1.622-20.753-3.926-23.354-15.976zm.521-61.593c4.802 0 8.939 3.421 9.826 8.161l9.312 49.753 39.312-7.39-9.313-49.769c-.899-4.806 1.809-9.558 6.402-11.234 30.735-11.212 57.489-30.86 77.368-56.821 2.972-3.882 8.316-5.046 12.634-2.75l44.72 23.777 18.75-35.333-44.69-23.763c-4.317-2.296-6.342-7.377-4.786-12.012 10.407-30.998 11.736-64.164 3.844-95.915-1.179-4.745 1.246-9.647 5.733-11.59l46.462-20.106-15.911-36.699-46.393 20.076c-4.484 1.94-9.719.354-12.372-3.752-17.685-27.379-42.793-49.104-72.611-62.825-4.438-2.042-6.75-6.992-5.47-11.706l13.275-48.864-38.601-10.487-13.262 48.812c-1.281 4.717-5.775 7.867-10.649 7.329-32.918-3.637-67.628 3.589-94.962 17.794-4.33 2.25-9.668.942-12.564-2.988l-30.015-40.71-32.215 23.71 30.033 40.736c2.897 3.93 2.533 9.379-.862 12.888-22.75 23.509-38.292 52.859-44.945 84.876-.992 4.781-5.271 8.14-10.175 7.958l-50.569-1.942-1.567 39.969 50.611 1.944c4.879.188 8.872 3.875 9.534 8.712 4.068 29.737 13.875 57.737 38.27 88.082 3.063 3.81 3.073 9.227-.12 12.927l-33.061 38.301 30.266 26.153 33.108-38.356c3.192-3.698 8.589-4.549 12.764-2.011 28.049 17.047 60.066 25.701 92.688 25.066.066-.001.133-.001.201-.001z"/></g></svg>